<svg width="238" height="69" viewBox="0 0 238 69" fill="none" xmlns="http://www.w3.org/2000/svg">
<g clip-path="url(#clip0_36_20)">
<rect x="70.4678" width="69" height="70.4677" rx="16" transform="rotate(90 70.4678 0)" fill="#FFB444"/>
<path d="M-26.4926 105.525C-69.3495 75.6075 3.05806 78.6182 36.4707 43.0446C69.8833 7.47089 79.1722 -36.924 122.029 -7.00633C164.886 22.9113 142.046 72.2442 108.633 107.818C75.2204 143.392 16.3642 135.443 -26.4926 105.525Z" fill="#574AA4"/>
<path d="M-29.8818 105.403C-72.7387 75.485 -0.3311 78.4957 33.0815 42.9221C66.4941 7.34838 75.7831 -37.0465 118.64 -7.12883C161.497 22.7888 138.656 72.1217 105.244 107.695C71.8312 143.269 12.9751 135.32 -29.8818 105.403Z" fill="#574AA4" fill-opacity="0.26"/>
</g>
<path d="M90.342 20.264C90.342 21.0413 90.1587 21.7747 89.792 22.464C89.4253 23.1533 88.8387 23.718 88.032 24.158C87.2253 24.5833 86.1913 24.796 84.93 24.796H82.158V31H79.65V15.71H84.93C86.1033 15.71 87.0933 15.9153 87.9 16.326C88.7213 16.722 89.33 17.2647 89.726 17.954C90.1367 18.6433 90.342 19.4133 90.342 20.264ZM84.93 22.75C85.8833 22.75 86.5947 22.5373 87.064 22.112C87.5333 21.672 87.768 21.056 87.768 20.264C87.768 18.592 86.822 17.756 84.93 17.756H82.158V22.75H84.93ZM95.242 20.638C95.6087 20.022 96.0927 19.5453 96.694 19.208C97.31 18.856 98.036 18.68 98.872 18.68V21.276H98.234C97.2513 21.276 96.5033 21.5253 95.99 22.024C95.4913 22.5227 95.242 23.388 95.242 24.62V31H92.734V18.878H95.242V20.638ZM106.435 31.198C105.291 31.198 104.257 30.9413 103.333 30.428C102.409 29.9 101.683 29.1667 101.155 28.228C100.627 27.2747 100.363 26.1747 100.363 24.928C100.363 23.696 100.635 22.6033 101.177 21.65C101.72 20.6967 102.461 19.9633 103.399 19.45C104.338 18.9367 105.387 18.68 106.545 18.68C107.704 18.68 108.753 18.9367 109.691 19.45C110.63 19.9633 111.371 20.6967 111.913 21.65C112.456 22.6033 112.727 23.696 112.727 24.928C112.727 26.16 112.449 27.2527 111.891 28.206C111.334 29.1593 110.571 29.9 109.603 30.428C108.65 30.9413 107.594 31.198 106.435 31.198ZM106.435 29.02C107.081 29.02 107.682 28.866 108.239 28.558C108.811 28.25 109.273 27.788 109.625 27.172C109.977 26.556 110.153 25.808 110.153 24.928C110.153 24.048 109.985 23.3073 109.647 22.706C109.31 22.09 108.863 21.628 108.305 21.32C107.748 21.012 107.147 20.858 106.501 20.858C105.856 20.858 105.255 21.012 104.697 21.32C104.155 21.628 103.722 22.09 103.399 22.706C103.077 23.3073 102.915 24.048 102.915 24.928C102.915 26.2333 103.245 27.2453 103.905 27.964C104.58 28.668 105.423 29.02 106.435 29.02ZM114.371 24.884C114.371 23.6667 114.62 22.5887 115.119 21.65C115.632 20.7113 116.321 19.9853 117.187 19.472C118.067 18.944 119.042 18.68 120.113 18.68C120.905 18.68 121.682 18.856 122.445 19.208C123.222 19.5453 123.838 20 124.293 20.572V14.72H126.823V31H124.293V29.174C123.882 29.7607 123.31 30.2447 122.577 30.626C121.858 31.0073 121.029 31.198 120.091 31.198C119.035 31.198 118.067 30.934 117.187 30.406C116.321 29.8633 115.632 29.1153 115.119 28.162C114.62 27.194 114.371 26.1013 114.371 24.884ZM124.293 24.928C124.293 24.092 124.117 23.366 123.765 22.75C123.427 22.134 122.98 21.6647 122.423 21.342C121.865 21.0193 121.264 20.858 120.619 20.858C119.973 20.858 119.372 21.0193 118.815 21.342C118.257 21.65 117.803 22.112 117.451 22.728C117.113 23.3293 116.945 24.048 116.945 24.884C116.945 25.72 117.113 26.4533 117.451 27.084C117.803 27.7147 118.257 28.1987 118.815 28.536C119.387 28.8587 119.988 29.02 120.619 29.02C121.264 29.02 121.865 28.8587 122.423 28.536C122.98 28.2133 123.427 27.744 123.765 27.128C124.117 26.4973 124.293 25.764 124.293 24.928ZM141.095 18.878V31H138.587V29.57C138.191 30.0687 137.67 30.4647 137.025 30.758C136.394 31.0367 135.719 31.176 135.001 31.176C134.047 31.176 133.189 30.978 132.427 30.582C131.679 30.186 131.085 29.5993 130.645 28.822C130.219 28.0447 130.007 27.106 130.007 26.006V18.878H132.493V25.632C132.493 26.7173 132.764 27.5533 133.307 28.14C133.849 28.712 134.59 28.998 135.529 28.998C136.467 28.998 137.208 28.712 137.751 28.14C138.308 27.5533 138.587 26.7173 138.587 25.632V18.878H141.095ZM143.568 24.928C143.568 23.6813 143.817 22.5887 144.316 21.65C144.829 20.6967 145.533 19.9633 146.428 19.45C147.323 18.9367 148.349 18.68 149.508 18.68C150.975 18.68 152.185 19.032 153.138 19.736C154.106 20.4253 154.759 21.4153 155.096 22.706H152.39C152.17 22.1047 151.818 21.6353 151.334 21.298C150.85 20.9607 150.241 20.792 149.508 20.792C148.481 20.792 147.66 21.1587 147.044 21.892C146.443 22.6107 146.142 23.6227 146.142 24.928C146.142 26.2333 146.443 27.2527 147.044 27.986C147.66 28.7193 148.481 29.086 149.508 29.086C150.96 29.086 151.921 28.448 152.39 27.172H155.096C154.744 28.404 154.084 29.3867 153.116 30.12C152.148 30.8387 150.945 31.198 149.508 31.198C148.349 31.198 147.323 30.9413 146.428 30.428C145.533 29.9 144.829 29.1667 144.316 28.228C143.817 27.2747 143.568 26.1747 143.568 24.928ZM160.521 20.924V27.634C160.521 28.0887 160.624 28.4187 160.829 28.624C161.049 28.8147 161.416 28.91 161.929 28.91H163.469V31H161.489C160.36 31 159.495 30.736 158.893 30.208C158.292 29.68 157.991 28.822 157.991 27.634V20.924H156.561V18.878H157.991V15.864H160.521V18.878H163.469V20.924H160.521ZM167.057 17.272C166.602 17.272 166.221 17.118 165.913 16.81C165.605 16.502 165.451 16.1207 165.451 15.666C165.451 15.2113 165.605 14.83 165.913 14.522C166.221 14.214 166.602 14.06 167.057 14.06C167.497 14.06 167.871 14.214 168.179 14.522C168.487 14.83 168.641 15.2113 168.641 15.666C168.641 16.1207 168.487 16.502 168.179 16.81C167.871 17.118 167.497 17.272 167.057 17.272ZM168.289 18.878V31H165.781V18.878H168.289ZM176.268 28.756L179.7 18.878H182.362L177.742 31H174.75L170.152 18.878H172.836L176.268 28.756ZM185.533 17.272C185.079 17.272 184.697 17.118 184.389 16.81C184.081 16.502 183.927 16.1207 183.927 15.666C183.927 15.2113 184.081 14.83 184.389 14.522C184.697 14.214 185.079 14.06 185.533 14.06C185.973 14.06 186.347 14.214 186.655 14.522C186.963 14.83 187.117 15.2113 187.117 15.666C187.117 16.1207 186.963 16.502 186.655 16.81C186.347 17.118 185.973 17.272 185.533 17.272ZM186.765 18.878V31H184.257V18.878H186.765ZM192.984 20.924V27.634C192.984 28.0887 193.087 28.4187 193.292 28.624C193.512 28.8147 193.879 28.91 194.392 28.91H195.932V31H193.952C192.823 31 191.958 30.736 191.356 30.208C190.755 29.68 190.454 28.822 190.454 27.634V20.924H189.024V18.878H190.454V15.864H192.984V18.878H195.932V20.924H192.984ZM209.156 18.878L201.72 36.698H199.124L201.588 30.802L196.814 18.878H199.608L203.018 28.118L206.56 18.878H209.156Z" fill="#382D7E"/>
<path d="M81.646 41.64V52H80.05V41.64H81.646ZM90.8114 47.954C90.8114 48.2433 90.7927 48.5047 90.7554 48.738H84.8614C84.9081 49.354 85.1367 49.8487 85.5474 50.222C85.9581 50.5953 86.4621 50.782 87.0594 50.782C87.9181 50.782 88.5247 50.4227 88.8794 49.704H90.6014C90.3681 50.4133 89.9434 50.9967 89.3274 51.454C88.7207 51.902 87.9647 52.126 87.0594 52.126C86.3221 52.126 85.6594 51.9627 85.0714 51.636C84.4927 51.3 84.0354 50.8333 83.6994 50.236C83.3727 49.6293 83.2094 48.9293 83.2094 48.136C83.2094 47.3427 83.3681 46.6473 83.6854 46.05C84.0121 45.4433 84.4647 44.9767 85.0434 44.65C85.6314 44.3233 86.3034 44.16 87.0594 44.16C87.7874 44.16 88.4361 44.3187 89.0054 44.636C89.5747 44.9533 90.0181 45.4013 90.3354 45.98C90.6527 46.5493 90.8114 47.2073 90.8114 47.954ZM89.1454 47.45C89.1361 46.862 88.9261 46.3907 88.5154 46.036C88.1047 45.6813 87.5961 45.504 86.9894 45.504C86.4387 45.504 85.9674 45.6813 85.5754 46.036C85.1834 46.3813 84.9501 46.8527 84.8754 47.45H89.1454ZM94.244 45.588V49.858C94.244 50.1473 94.3094 50.3573 94.44 50.488C94.58 50.6093 94.8134 50.67 95.14 50.67H96.12V52H94.86C94.1414 52 93.5907 51.832 93.208 51.496C92.8254 51.16 92.634 50.614 92.634 49.858V45.588H91.724V44.286H92.634V42.368H94.244V44.286H96.12V45.588H94.244ZM97.843 42.27H99.579L98.109 45.602H96.989L97.843 42.27ZM103.782 52.126C103.175 52.126 102.629 52.0187 102.144 51.804C101.668 51.58 101.29 51.2813 101.01 50.908C100.73 50.5253 100.58 50.1007 100.562 49.634H102.214C102.242 49.9607 102.396 50.236 102.676 50.46C102.965 50.6747 103.324 50.782 103.754 50.782C104.202 50.782 104.547 50.698 104.79 50.53C105.042 50.3527 105.168 50.1287 105.168 49.858C105.168 49.5687 105.028 49.354 104.748 49.214C104.477 49.074 104.043 48.92 103.446 48.752C102.867 48.5933 102.396 48.4393 102.032 48.29C101.668 48.1407 101.35 47.912 101.08 47.604C100.818 47.296 100.688 46.89 100.688 46.386C100.688 45.9753 100.809 45.602 101.052 45.266C101.294 44.9207 101.64 44.65 102.088 44.454C102.545 44.258 103.068 44.16 103.656 44.16C104.533 44.16 105.238 44.384 105.77 44.832C106.311 45.2707 106.6 45.8727 106.638 46.638H105.042C105.014 46.2927 104.874 46.0173 104.622 45.812C104.37 45.6067 104.029 45.504 103.6 45.504C103.18 45.504 102.858 45.5833 102.634 45.742C102.41 45.9007 102.298 46.1107 102.298 46.372C102.298 46.5773 102.372 46.75 102.522 46.89C102.671 47.03 102.853 47.142 103.068 47.226C103.282 47.3007 103.6 47.3987 104.02 47.52C104.58 47.6693 105.037 47.8233 105.392 47.982C105.756 48.1313 106.068 48.3553 106.33 48.654C106.591 48.9527 106.726 49.3493 106.736 49.844C106.736 50.2827 106.614 50.6747 106.372 51.02C106.129 51.3653 105.784 51.636 105.336 51.832C104.897 52.028 104.379 52.126 103.782 52.126ZM114.897 52.126C114.29 52.126 113.744 52.0187 113.259 51.804C112.783 51.58 112.405 51.2813 112.125 50.908C111.845 50.5253 111.696 50.1007 111.677 49.634H113.329C113.357 49.9607 113.511 50.236 113.791 50.46C114.08 50.6747 114.44 50.782 114.869 50.782C115.317 50.782 115.662 50.698 115.905 50.53C116.157 50.3527 116.283 50.1287 116.283 49.858C116.283 49.5687 116.143 49.354 115.863 49.214C115.592 49.074 115.158 48.92 114.561 48.752C113.982 48.5933 113.511 48.4393 113.147 48.29C112.783 48.1407 112.466 47.912 112.195 47.604C111.934 47.296 111.803 46.89 111.803 46.386C111.803 45.9753 111.924 45.602 112.167 45.266C112.41 44.9207 112.755 44.65 113.203 44.454C113.66 44.258 114.183 44.16 114.771 44.16C115.648 44.16 116.353 44.384 116.885 44.832C117.426 45.2707 117.716 45.8727 117.753 46.638H116.157C116.129 46.2927 115.989 46.0173 115.737 45.812C115.485 45.6067 115.144 45.504 114.715 45.504C114.295 45.504 113.973 45.5833 113.749 45.742C113.525 45.9007 113.413 46.1107 113.413 46.372C113.413 46.5773 113.488 46.75 113.637 46.89C113.786 47.03 113.968 47.142 114.183 47.226C114.398 47.3007 114.715 47.3987 115.135 47.52C115.695 47.6693 116.152 47.8233 116.507 47.982C116.871 48.1313 117.184 48.3553 117.445 48.654C117.706 48.9527 117.842 49.3493 117.851 49.844C117.851 50.2827 117.73 50.6747 117.487 51.02C117.244 51.3653 116.899 51.636 116.451 51.832C116.012 52.028 115.494 52.126 114.897 52.126ZM121.437 45.588V49.858C121.437 50.1473 121.503 50.3573 121.633 50.488C121.773 50.6093 122.007 50.67 122.333 50.67H123.313V52H122.053C121.335 52 120.784 51.832 120.401 51.496C120.019 51.16 119.827 50.614 119.827 49.858V45.588H118.917V44.286H119.827V42.368H121.437V44.286H123.313V45.588H121.437ZM124.252 48.108C124.252 47.3333 124.411 46.6473 124.728 46.05C125.055 45.4527 125.494 44.9907 126.044 44.664C126.604 44.328 127.22 44.16 127.892 44.16C128.499 44.16 129.026 44.2813 129.474 44.524C129.932 44.7573 130.296 45.0513 130.566 45.406V44.286H132.176V52H130.566V50.852C130.296 51.216 129.927 51.5193 129.46 51.762C128.994 52.0047 128.462 52.126 127.864 52.126C127.202 52.126 126.595 51.958 126.044 51.622C125.494 51.2767 125.055 50.8007 124.728 50.194C124.411 49.578 124.252 48.8827 124.252 48.108ZM130.566 48.136C130.566 47.604 130.454 47.142 130.23 46.75C130.016 46.358 129.731 46.0593 129.376 45.854C129.022 45.6487 128.639 45.546 128.228 45.546C127.818 45.546 127.435 45.6487 127.08 45.854C126.726 46.05 126.436 46.344 126.212 46.736C125.998 47.1187 125.89 47.576 125.89 48.108C125.89 48.64 125.998 49.1067 126.212 49.508C126.436 49.9093 126.726 50.2173 127.08 50.432C127.444 50.6373 127.827 50.74 128.228 50.74C128.639 50.74 129.022 50.6373 129.376 50.432C129.731 50.2267 130.016 49.928 130.23 49.536C130.454 49.1347 130.566 48.668 130.566 48.136ZM135.869 45.406C136.102 45.014 136.41 44.7107 136.793 44.496C137.185 44.272 137.647 44.16 138.179 44.16V45.812H137.773C137.147 45.812 136.671 45.9707 136.345 46.288C136.027 46.6053 135.869 47.156 135.869 47.94V52H134.273V44.286H135.869V45.406ZM141.508 45.588V49.858C141.508 50.1473 141.573 50.3573 141.704 50.488C141.844 50.6093 142.077 50.67 142.404 50.67H143.384V52H142.124C141.405 52 140.854 51.832 140.472 51.496C140.089 51.16 139.898 50.614 139.898 49.858V45.588H138.988V44.286H139.898V42.368H141.508V44.286H143.384V45.588H141.508Z" fill="#382D7E" fill-opacity="0.46"/>
<defs>
<clipPath id="clip0_36_20">
<rect x="70.4678" width="69" height="70.4677" rx="16" transform="rotate(90 70.4678 0)" fill="white"/>
</clipPath>
</defs>
</svg>
