<svg width="178" height="49" viewBox="0 0 178 49" fill="none" xmlns="http://www.w3.org/2000/svg">
<g clip-path="url(#clip0_48_10)">
<rect x="50.0139" width="48.9722" height="50.0139" rx="16" transform="rotate(90 50.0139 0)" fill="white"/>
<path d="M-18.8028 74.8957C-49.2201 53.6618 2.17059 55.7987 25.8849 30.5506C49.5993 5.30242 56.192 -26.2065 86.6094 -4.97268C117.027 16.2612 100.816 51.2748 77.1016 76.523C53.3872 101.771 11.6145 96.1295 -18.8028 74.8957Z" fill="#FFB444"/>
<path d="M-21.2083 74.8087C-51.6257 53.5749 -0.234931 55.7118 23.4794 30.4636C47.1938 5.21546 53.7865 -26.2935 84.2039 -5.05963C114.621 16.1742 98.4104 51.1879 74.6961 76.436C50.9817 101.684 9.20902 96.0426 -21.2083 74.8087Z" fill="white" fill-opacity="0.26"/>
</g>
<path d="M73.6729 12.7141C73.6729 13.3854 73.5146 14.0188 73.1979 14.6141C72.8812 15.2094 72.3746 15.6971 71.6779 16.0771C70.9812 16.4444 70.0882 16.6281 68.9989 16.6281H66.6049V21.9861H64.4389V8.78111H68.9989C70.0122 8.78111 70.8672 8.95845 71.5639 9.31311C72.2732 9.65511 72.7989 10.1238 73.1409 10.7191C73.4956 11.3144 73.6729 11.9794 73.6729 12.7141ZM68.9989 14.8611C69.8222 14.8611 70.4366 14.6774 70.8419 14.3101C71.2472 13.9301 71.4499 13.3981 71.4499 12.7141C71.4499 11.2701 70.6329 10.5481 68.9989 10.5481H66.6049V14.8611H68.9989ZM77.9047 13.0371C78.2214 12.5051 78.6394 12.0934 79.1587 11.8021C79.6907 11.4981 80.3177 11.3461 81.0397 11.3461V13.5881H80.4887C79.6401 13.5881 78.9941 13.8034 78.5507 14.2341C78.1201 14.6648 77.9047 15.4121 77.9047 16.4761V21.9861H75.7387V11.5171H77.9047V13.0371ZM87.5717 22.1571C86.5837 22.1571 85.6907 21.9354 84.8927 21.4921C84.0947 21.0361 83.4677 20.4028 83.0117 19.5921C82.5557 18.7688 82.3277 17.8188 82.3277 16.7421C82.3277 15.6781 82.562 14.7344 83.0307 13.9111C83.4994 13.0878 84.139 12.4544 84.9497 12.0111C85.7604 11.5678 86.666 11.3461 87.6667 11.3461C88.6674 11.3461 89.573 11.5678 90.3837 12.0111C91.1944 12.4544 91.834 13.0878 92.3027 13.9111C92.7714 14.7344 93.0057 15.6781 93.0057 16.7421C93.0057 17.8061 92.765 18.7498 92.2837 19.5731C91.8024 20.3964 91.1437 21.0361 90.3077 21.4921C89.4844 21.9354 88.5724 22.1571 87.5717 22.1571ZM87.5717 20.2761C88.129 20.2761 88.6484 20.1431 89.1297 19.8771C89.6237 19.6111 90.0227 19.2121 90.3267 18.6801C90.6307 18.1481 90.7827 17.5021 90.7827 16.7421C90.7827 15.9821 90.637 15.3424 90.3457 14.8231C90.0544 14.2911 89.668 13.8921 89.1867 13.6261C88.7054 13.3601 88.186 13.2271 87.6287 13.2271C87.0714 13.2271 86.552 13.3601 86.0707 13.6261C85.602 13.8921 85.2284 14.2911 84.9497 14.8231C84.671 15.3424 84.5317 15.9821 84.5317 16.7421C84.5317 17.8694 84.8167 18.7434 85.3867 19.3641C85.9694 19.9721 86.6977 20.2761 87.5717 20.2761ZM94.4249 16.7041C94.4249 15.6528 94.6403 14.7218 95.0709 13.9111C95.5143 13.1004 96.1096 12.4734 96.8569 12.0301C97.6169 11.5741 98.4593 11.3461 99.3839 11.3461C100.068 11.3461 100.739 11.4981 101.398 11.8021C102.069 12.0934 102.601 12.4861 102.994 12.9801V7.92611H105.179V21.9861H102.994V20.4091C102.639 20.9158 102.145 21.3338 101.512 21.6631C100.891 21.9924 100.176 22.1571 99.3649 22.1571C98.4529 22.1571 97.6169 21.9291 96.8569 21.4731C96.1096 21.0044 95.5143 20.3584 95.0709 19.5351C94.6403 18.6991 94.4249 17.7554 94.4249 16.7041ZM102.994 16.7421C102.994 16.0201 102.842 15.3931 102.538 14.8611C102.247 14.3291 101.86 13.9238 101.379 13.6451C100.898 13.3664 100.378 13.2271 99.8209 13.2271C99.2636 13.2271 98.7443 13.3664 98.2629 13.6451C97.7816 13.9111 97.3889 14.3101 97.0849 14.8421C96.7936 15.3614 96.6479 15.9821 96.6479 16.7041C96.6479 17.4261 96.7936 18.0594 97.0849 18.6041C97.3889 19.1488 97.7816 19.5668 98.2629 19.8581C98.7569 20.1368 99.2763 20.2761 99.8209 20.2761C100.378 20.2761 100.898 20.1368 101.379 19.8581C101.86 19.5794 102.247 19.1741 102.538 18.6421C102.842 18.0974 102.994 17.4641 102.994 16.7421ZM117.505 11.5171V21.9861H115.339V20.7511C114.997 21.1818 114.547 21.5238 113.99 21.7771C113.445 22.0178 112.863 22.1381 112.242 22.1381C111.419 22.1381 110.678 21.9671 110.019 21.6251C109.373 21.2831 108.86 20.7764 108.48 20.1051C108.113 19.4338 107.929 18.6231 107.929 17.6731V11.5171H110.076V17.3501C110.076 18.2874 110.31 19.0094 110.779 19.5161C111.248 20.0101 111.887 20.2571 112.698 20.2571C113.509 20.2571 114.148 20.0101 114.617 19.5161C115.098 19.0094 115.339 18.2874 115.339 17.3501V11.5171H117.505ZM119.641 16.7421C119.641 15.6654 119.856 14.7218 120.287 13.9111C120.73 13.0878 121.338 12.4544 122.111 12.0111C122.883 11.5678 123.77 11.3461 124.771 11.3461C126.037 11.3461 127.082 11.6501 127.906 12.2581C128.742 12.8534 129.305 13.7084 129.597 14.8231H127.26C127.07 14.3038 126.766 13.8984 126.348 13.6071C125.93 13.3158 125.404 13.1701 124.771 13.1701C123.884 13.1701 123.175 13.4868 122.643 14.1201C122.123 14.7408 121.864 15.6148 121.864 16.7421C121.864 17.8694 122.123 18.7498 122.643 19.3831C123.175 20.0164 123.884 20.3331 124.771 20.3331C126.025 20.3331 126.854 19.7821 127.26 18.6801H129.597C129.293 19.7441 128.723 20.5928 127.887 21.2261C127.051 21.8468 126.012 22.1571 124.771 22.1571C123.77 22.1571 122.883 21.9354 122.111 21.4921C121.338 21.0361 120.73 20.4028 120.287 19.5921C119.856 18.7688 119.641 17.8188 119.641 16.7421ZM134.282 13.2841V19.0791C134.282 19.4718 134.371 19.7568 134.548 19.9341C134.738 20.0988 135.055 20.1811 135.498 20.1811H136.828V21.9861H135.118C134.143 21.9861 133.396 21.7581 132.876 21.3021C132.357 20.8461 132.097 20.1051 132.097 19.0791V13.2841H130.862V11.5171H132.097V8.91411H134.282V11.5171H136.828V13.2841H134.282ZM139.927 10.1301C139.534 10.1301 139.205 9.99711 138.939 9.73111C138.673 9.46511 138.54 9.13578 138.54 8.74311C138.54 8.35045 138.673 8.02111 138.939 7.75511C139.205 7.48911 139.534 7.35611 139.927 7.35611C140.307 7.35611 140.63 7.48911 140.896 7.75511C141.162 8.02111 141.295 8.35045 141.295 8.74311C141.295 9.13578 141.162 9.46511 140.896 9.73111C140.63 9.99711 140.307 10.1301 139.927 10.1301ZM140.991 11.5171V21.9861H138.825V11.5171H140.991ZM147.881 20.0481L150.845 11.5171H153.144L149.154 21.9861H146.57L142.599 11.5171H144.917L147.881 20.0481ZM155.884 10.1301C155.491 10.1301 155.162 9.99711 154.896 9.73111C154.63 9.46511 154.497 9.13578 154.497 8.74311C154.497 8.35045 154.63 8.02111 154.896 7.75511C155.162 7.48911 155.491 7.35611 155.884 7.35611C156.264 7.35611 156.587 7.48911 156.853 7.75511C157.119 8.02111 157.252 8.35045 157.252 8.74311C157.252 9.13578 157.119 9.46511 156.853 9.73111C156.587 9.99711 156.264 10.1301 155.884 10.1301ZM156.948 11.5171V21.9861H154.782V11.5171H156.948ZM162.318 13.2841V19.0791C162.318 19.4718 162.407 19.7568 162.584 19.9341C162.774 20.0988 163.091 20.1811 163.534 20.1811H164.864V21.9861H163.154C162.179 21.9861 161.432 21.7581 160.912 21.3021C160.393 20.8461 160.133 20.1051 160.133 19.0791V13.2841H158.898V11.5171H160.133V8.91411H162.318V11.5171H164.864V13.2841H162.318ZM176.285 11.5171L169.863 26.9071H167.621L169.749 21.8151L165.626 11.5171H168.039L170.984 19.4971L174.043 11.5171H176.285Z" fill="white"/>
<path d="M65.268 33.12V42H63.9V33.12H65.268ZM73.1241 38.532C73.1241 38.78 73.1081 39.004 73.0761 39.204H68.0241C68.0641 39.732 68.2601 40.156 68.6121 40.476C68.9641 40.796 69.3961 40.956 69.9081 40.956C70.6441 40.956 71.1641 40.648 71.4681 40.032H72.9441C72.7441 40.64 72.3801 41.14 71.8521 41.532C71.3321 41.916 70.6841 42.108 69.9081 42.108C69.2761 42.108 68.7081 41.968 68.2041 41.688C67.7081 41.4 67.3161 41 67.0281 40.488C66.7481 39.968 66.6081 39.368 66.6081 38.688C66.6081 38.008 66.7441 37.412 67.0161 36.9C67.2961 36.38 67.6841 35.98 68.1801 35.7C68.6841 35.42 69.2601 35.28 69.9081 35.28C70.5321 35.28 71.0881 35.416 71.5761 35.688C72.0641 35.96 72.4441 36.344 72.7161 36.84C72.9881 37.328 73.1241 37.892 73.1241 38.532ZM71.6961 38.1C71.6881 37.596 71.5081 37.192 71.1561 36.888C70.8041 36.584 70.3681 36.432 69.8481 36.432C69.3761 36.432 68.9721 36.584 68.6361 36.888C68.3001 37.184 68.1001 37.588 68.0361 38.1H71.6961ZM76.0663 36.504V40.164C76.0663 40.412 76.1223 40.592 76.2343 40.704C76.3543 40.808 76.5543 40.86 76.8343 40.86H77.6743V42H76.5943C75.9783 42 75.5063 41.856 75.1783 41.568C74.8503 41.28 74.6863 40.812 74.6863 40.164V36.504H73.9063V35.388H74.6863V33.744H76.0663V35.388H77.6743V36.504H76.0663ZM79.1512 33.66H80.6392L79.3792 36.516H78.4192L79.1512 33.66ZM84.2414 42.108C83.7214 42.108 83.2534 42.016 82.8374 41.832C82.4294 41.64 82.1054 41.384 81.8654 41.064C81.6254 40.736 81.4974 40.372 81.4814 39.972H82.8974C82.9214 40.252 83.0534 40.488 83.2934 40.68C83.5414 40.864 83.8494 40.956 84.2174 40.956C84.6014 40.956 84.8974 40.884 85.1054 40.74C85.3214 40.588 85.4294 40.396 85.4294 40.164C85.4294 39.916 85.3094 39.732 85.0694 39.612C84.8374 39.492 84.4654 39.36 83.9534 39.216C83.4574 39.08 83.0534 38.948 82.7414 38.82C82.4294 38.692 82.1574 38.496 81.9254 38.232C81.7014 37.968 81.5894 37.62 81.5894 37.188C81.5894 36.836 81.6934 36.516 81.9014 36.228C82.1094 35.932 82.4054 35.7 82.7894 35.532C83.1814 35.364 83.6294 35.28 84.1334 35.28C84.8854 35.28 85.4894 35.472 85.9454 35.856C86.4094 36.232 86.6574 36.748 86.6894 37.404H85.3214C85.2974 37.108 85.1774 36.872 84.9614 36.696C84.7454 36.52 84.4534 36.432 84.0854 36.432C83.7254 36.432 83.4494 36.5 83.2574 36.636C83.0654 36.772 82.9694 36.952 82.9694 37.176C82.9694 37.352 83.0334 37.5 83.1614 37.62C83.2894 37.74 83.4454 37.836 83.6294 37.908C83.8134 37.972 84.0854 38.056 84.4454 38.16C84.9254 38.288 85.3174 38.42 85.6214 38.556C85.9334 38.684 86.2014 38.876 86.4254 39.132C86.6494 39.388 86.7654 39.728 86.7734 40.152C86.7734 40.528 86.6694 40.864 86.4614 41.16C86.2534 41.456 85.9574 41.688 85.5734 41.856C85.1974 42.024 84.7534 42.108 84.2414 42.108ZM93.7688 42.108C93.2488 42.108 92.7808 42.016 92.3648 41.832C91.9568 41.64 91.6328 41.384 91.3928 41.064C91.1528 40.736 91.0248 40.372 91.0088 39.972H92.4248C92.4488 40.252 92.5808 40.488 92.8208 40.68C93.0688 40.864 93.3768 40.956 93.7448 40.956C94.1288 40.956 94.4248 40.884 94.6328 40.74C94.8488 40.588 94.9568 40.396 94.9568 40.164C94.9568 39.916 94.8368 39.732 94.5968 39.612C94.3648 39.492 93.9928 39.36 93.4808 39.216C92.9848 39.08 92.5808 38.948 92.2688 38.82C91.9568 38.692 91.6848 38.496 91.4528 38.232C91.2288 37.968 91.1168 37.62 91.1168 37.188C91.1168 36.836 91.2208 36.516 91.4288 36.228C91.6368 35.932 91.9328 35.7 92.3168 35.532C92.7088 35.364 93.1568 35.28 93.6608 35.28C94.4128 35.28 95.0168 35.472 95.4728 35.856C95.9368 36.232 96.1848 36.748 96.2168 37.404H94.8488C94.8248 37.108 94.7048 36.872 94.4888 36.696C94.2728 36.52 93.9808 36.432 93.6128 36.432C93.2528 36.432 92.9768 36.5 92.7848 36.636C92.5928 36.772 92.4968 36.952 92.4968 37.176C92.4968 37.352 92.5608 37.5 92.6888 37.62C92.8168 37.74 92.9728 37.836 93.1568 37.908C93.3408 37.972 93.6128 38.056 93.9728 38.16C94.4528 38.288 94.8448 38.42 95.1488 38.556C95.4608 38.684 95.7288 38.876 95.9528 39.132C96.1768 39.388 96.2928 39.728 96.3008 40.152C96.3008 40.528 96.1968 40.864 95.9888 41.16C95.7808 41.456 95.4848 41.688 95.1008 41.856C94.7248 42.024 94.2808 42.108 93.7688 42.108ZM99.3749 36.504V40.164C99.3749 40.412 99.4309 40.592 99.5429 40.704C99.6629 40.808 99.8629 40.86 100.143 40.86H100.983V42H99.9029C99.2869 42 98.8149 41.856 98.4869 41.568C98.1589 41.28 97.9949 40.812 97.9949 40.164V36.504H97.2149V35.388H97.9949V33.744H99.3749V35.388H100.983V36.504H99.3749ZM101.788 38.664C101.788 38 101.924 37.412 102.196 36.9C102.476 36.388 102.852 35.992 103.324 35.712C103.804 35.424 104.332 35.28 104.908 35.28C105.428 35.28 105.88 35.384 106.264 35.592C106.656 35.792 106.968 36.044 107.2 36.348V35.388H108.58V42H107.2V41.016C106.968 41.328 106.652 41.588 106.252 41.796C105.852 42.004 105.396 42.108 104.884 42.108C104.316 42.108 103.796 41.964 103.324 41.676C102.852 41.38 102.476 40.972 102.196 40.452C101.924 39.924 101.788 39.328 101.788 38.664ZM107.2 38.688C107.2 38.232 107.104 37.836 106.912 37.5C106.728 37.164 106.484 36.908 106.18 36.732C105.876 36.556 105.548 36.468 105.196 36.468C104.844 36.468 104.516 36.556 104.212 36.732C103.908 36.9 103.66 37.152 103.468 37.488C103.284 37.816 103.192 38.208 103.192 38.664C103.192 39.12 103.284 39.52 103.468 39.864C103.66 40.208 103.908 40.472 104.212 40.656C104.524 40.832 104.852 40.92 105.196 40.92C105.548 40.92 105.876 40.832 106.18 40.656C106.484 40.48 106.728 40.224 106.912 39.888C107.104 39.544 107.2 39.144 107.2 38.688ZM111.745 36.348C111.945 36.012 112.209 35.752 112.537 35.568C112.873 35.376 113.269 35.28 113.725 35.28V36.696H113.377C112.841 36.696 112.433 36.832 112.153 37.104C111.881 37.376 111.745 37.848 111.745 38.52V42H110.377V35.388H111.745V36.348ZM116.578 36.504V40.164C116.578 40.412 116.634 40.592 116.746 40.704C116.866 40.808 117.066 40.86 117.346 40.86H118.186V42H117.106C116.49 42 116.018 41.856 115.69 41.568C115.362 41.28 115.198 40.812 115.198 40.164V36.504H114.418V35.388H115.198V33.744H116.578V35.388H118.186V36.504H116.578Z" fill="white" fill-opacity="0.46"/>
<defs>
<clipPath id="clip0_48_10">
<rect x="50.0139" width="48.9722" height="50.0139" rx="16" transform="rotate(90 50.0139 0)" fill="white"/>
</clipPath>
</defs>
</svg>
