<svg width="249" height="69" viewBox="0 0 249 69" fill="none" xmlns="http://www.w3.org/2000/svg">
<g clip-path="url(#clip0_35_60)">
<rect x="70.4678" width="69" height="70.4677" rx="16" transform="rotate(90 70.4678 0)" fill="#FFB444"/>
<path d="M-26.4926 105.525C-69.3495 75.6075 3.05806 78.6182 36.4707 43.0446C69.8833 7.47089 79.1722 -36.924 122.029 -7.00633C164.886 22.9113 142.046 72.2442 108.633 107.818C75.2204 143.392 16.3642 135.443 -26.4926 105.525Z" fill="#574AA4"/>
<path d="M-29.8818 105.403C-72.7387 75.485 -0.3311 78.4957 33.0815 42.9221C66.4941 7.34838 75.7831 -37.0465 118.64 -7.12883C161.497 22.7888 138.656 72.1217 105.244 107.695C71.8312 143.269 12.9751 135.32 -29.8818 105.403Z" fill="#574AA4" fill-opacity="0.26"/>
</g>
<path d="M99.659 23.728C99.659 24.3993 99.5007 25.0327 99.184 25.628C98.8673 26.2233 98.3607 26.711 97.664 27.091C96.9673 27.4583 96.0743 27.642 94.985 27.642H92.591V33H90.425V19.795H94.985C95.9983 19.795 96.8533 19.9723 97.55 20.327C98.2593 20.669 98.785 21.1377 99.127 21.733C99.4817 22.3283 99.659 22.9933 99.659 23.728ZM94.985 25.875C95.8083 25.875 96.4227 25.6913 96.828 25.324C97.2333 24.944 97.436 24.412 97.436 23.728C97.436 22.284 96.619 21.562 94.985 21.562H92.591V25.875H94.985ZM103.891 24.051C104.207 23.519 104.625 23.1073 105.145 22.816C105.677 22.512 106.304 22.36 107.026 22.36V24.602H106.475C105.626 24.602 104.98 24.8173 104.537 25.248C104.106 25.6787 103.891 26.426 103.891 27.49V33H101.725V22.531H103.891V24.051ZM113.558 33.171C112.57 33.171 111.677 32.9493 110.879 32.506C110.081 32.05 109.454 31.4167 108.998 30.606C108.542 29.7827 108.314 28.8327 108.314 27.756C108.314 26.692 108.548 25.7483 109.017 24.925C109.485 24.1017 110.125 23.4683 110.936 23.025C111.746 22.5817 112.652 22.36 113.653 22.36C114.653 22.36 115.559 22.5817 116.37 23.025C117.18 23.4683 117.82 24.1017 118.289 24.925C118.757 25.7483 118.992 26.692 118.992 27.756C118.992 28.82 118.751 29.7637 118.27 30.587C117.788 31.4103 117.13 32.05 116.294 32.506C115.47 32.9493 114.558 33.171 113.558 33.171ZM113.558 31.29C114.115 31.29 114.634 31.157 115.116 30.891C115.61 30.625 116.009 30.226 116.313 29.694C116.617 29.162 116.769 28.516 116.769 27.756C116.769 26.996 116.623 26.3563 116.332 25.837C116.04 25.305 115.654 24.906 115.173 24.64C114.691 24.374 114.172 24.241 113.615 24.241C113.057 24.241 112.538 24.374 112.057 24.64C111.588 24.906 111.214 25.305 110.936 25.837C110.657 26.3563 110.518 26.996 110.518 27.756C110.518 28.8833 110.803 29.7573 111.373 30.378C111.955 30.986 112.684 31.29 113.558 31.29ZM120.411 27.718C120.411 26.6667 120.626 25.7357 121.057 24.925C121.5 24.1143 122.096 23.4873 122.843 23.044C123.603 22.588 124.445 22.36 125.37 22.36C126.054 22.36 126.725 22.512 127.384 22.816C128.055 23.1073 128.587 23.5 128.98 23.994V18.94H131.165V33H128.98V31.423C128.625 31.9297 128.131 32.3477 127.498 32.677C126.877 33.0063 126.162 33.171 125.351 33.171C124.439 33.171 123.603 32.943 122.843 32.487C122.096 32.0183 121.5 31.3723 121.057 30.549C120.626 29.713 120.411 28.7693 120.411 27.718ZM128.98 27.756C128.98 27.034 128.828 26.407 128.524 25.875C128.233 25.343 127.846 24.9377 127.365 24.659C126.884 24.3803 126.364 24.241 125.807 24.241C125.25 24.241 124.73 24.3803 124.249 24.659C123.768 24.925 123.375 25.324 123.071 25.856C122.78 26.3753 122.634 26.996 122.634 27.718C122.634 28.44 122.78 29.0733 123.071 29.618C123.375 30.1627 123.768 30.5807 124.249 30.872C124.743 31.1507 125.262 31.29 125.807 31.29C126.364 31.29 126.884 31.1507 127.365 30.872C127.846 30.5933 128.233 30.188 128.524 29.656C128.828 29.1113 128.98 28.478 128.98 27.756ZM143.491 22.531V33H141.325V31.765C140.983 32.1957 140.533 32.5377 139.976 32.791C139.431 33.0317 138.849 33.152 138.228 33.152C137.405 33.152 136.664 32.981 136.005 32.639C135.359 32.297 134.846 31.7903 134.466 31.119C134.099 30.4477 133.915 29.637 133.915 28.687V22.531H136.062V28.364C136.062 29.3013 136.296 30.0233 136.765 30.53C137.234 31.024 137.873 31.271 138.684 31.271C139.495 31.271 140.134 31.024 140.603 30.53C141.084 30.0233 141.325 29.3013 141.325 28.364V22.531H143.491ZM145.627 27.756C145.627 26.6793 145.842 25.7357 146.273 24.925C146.716 24.1017 147.324 23.4683 148.097 23.025C148.869 22.5817 149.756 22.36 150.757 22.36C152.023 22.36 153.068 22.664 153.892 23.272C154.728 23.8673 155.291 24.7223 155.583 25.837H153.246C153.056 25.3177 152.752 24.9123 152.334 24.621C151.916 24.3297 151.39 24.184 150.757 24.184C149.87 24.184 149.161 24.5007 148.629 25.134C148.109 25.7547 147.85 26.6287 147.85 27.756C147.85 28.8833 148.109 29.7637 148.629 30.397C149.161 31.0303 149.87 31.347 150.757 31.347C152.011 31.347 152.84 30.796 153.246 29.694H155.583C155.279 30.758 154.709 31.6067 153.873 32.24C153.037 32.8607 151.998 33.171 150.757 33.171C149.756 33.171 148.869 32.9493 148.097 32.506C147.324 32.05 146.716 31.4167 146.273 30.606C145.842 29.7827 145.627 28.8327 145.627 27.756ZM160.268 24.298V30.093C160.268 30.4857 160.357 30.7707 160.534 30.948C160.724 31.1127 161.041 31.195 161.484 31.195H162.814V33H161.104C160.129 33 159.382 32.772 158.862 32.316C158.343 31.86 158.083 31.119 158.083 30.093V24.298H156.848V22.531H158.083V19.928H160.268V22.531H162.814V24.298H160.268ZM165.913 21.144C165.52 21.144 165.191 21.011 164.925 20.745C164.659 20.479 164.526 20.1497 164.526 19.757C164.526 19.3643 164.659 19.035 164.925 18.769C165.191 18.503 165.52 18.37 165.913 18.37C166.293 18.37 166.616 18.503 166.882 18.769C167.148 19.035 167.281 19.3643 167.281 19.757C167.281 20.1497 167.148 20.479 166.882 20.745C166.616 21.011 166.293 21.144 165.913 21.144ZM166.977 22.531V33H164.811V22.531H166.977ZM173.868 31.062L176.832 22.531H179.131L175.141 33H172.557L168.586 22.531H170.904L173.868 31.062ZM181.87 21.144C181.477 21.144 181.148 21.011 180.882 20.745C180.616 20.479 180.483 20.1497 180.483 19.757C180.483 19.3643 180.616 19.035 180.882 18.769C181.148 18.503 181.477 18.37 181.87 18.37C182.25 18.37 182.573 18.503 182.839 18.769C183.105 19.035 183.238 19.3643 183.238 19.757C183.238 20.1497 183.105 20.479 182.839 20.745C182.573 21.011 182.25 21.144 181.87 21.144ZM182.934 22.531V33H180.768V22.531H182.934ZM188.305 24.298V30.093C188.305 30.4857 188.393 30.7707 188.571 30.948C188.761 31.1127 189.077 31.195 189.521 31.195H190.851V33H189.141C188.165 33 187.418 32.772 186.899 32.316C186.379 31.86 186.12 31.119 186.12 30.093V24.298H184.885V22.531H186.12V19.928H188.305V22.531H190.851V24.298H188.305ZM202.271 22.531L195.849 37.921H193.607L195.735 32.829L191.612 22.531H194.025L196.97 30.511L200.029 22.531H202.271Z" fill="#382D7E"/>
<path d="M91.268 43.12V52H89.9V43.12H91.268ZM99.1241 48.532C99.1241 48.78 99.1081 49.004 99.0761 49.204H94.0241C94.0641 49.732 94.2601 50.156 94.6121 50.476C94.9641 50.796 95.3961 50.956 95.9081 50.956C96.6441 50.956 97.1641 50.648 97.4681 50.032H98.9441C98.7441 50.64 98.3801 51.14 97.8521 51.532C97.3321 51.916 96.6841 52.108 95.9081 52.108C95.2761 52.108 94.7081 51.968 94.2041 51.688C93.7081 51.4 93.3161 51 93.0281 50.488C92.7481 49.968 92.6081 49.368 92.6081 48.688C92.6081 48.008 92.7441 47.412 93.0161 46.9C93.2961 46.38 93.6841 45.98 94.1801 45.7C94.6841 45.42 95.2601 45.28 95.9081 45.28C96.5321 45.28 97.0881 45.416 97.5761 45.688C98.0641 45.96 98.4441 46.344 98.7161 46.84C98.9881 47.328 99.1241 47.892 99.1241 48.532ZM97.6961 48.1C97.6881 47.596 97.5081 47.192 97.1561 46.888C96.8041 46.584 96.3681 46.432 95.8481 46.432C95.3761 46.432 94.9721 46.584 94.6361 46.888C94.3001 47.184 94.1001 47.588 94.0361 48.1H97.6961ZM102.066 46.504V50.164C102.066 50.412 102.122 50.592 102.234 50.704C102.354 50.808 102.554 50.86 102.834 50.86H103.674V52H102.594C101.978 52 101.506 51.856 101.178 51.568C100.85 51.28 100.686 50.812 100.686 50.164V46.504H99.9063V45.388H100.686V43.744H102.066V45.388H103.674V46.504H102.066ZM105.151 43.66H106.639L105.379 46.516H104.419L105.151 43.66ZM110.241 52.108C109.721 52.108 109.253 52.016 108.837 51.832C108.429 51.64 108.105 51.384 107.865 51.064C107.625 50.736 107.497 50.372 107.481 49.972H108.897C108.921 50.252 109.053 50.488 109.293 50.68C109.541 50.864 109.849 50.956 110.217 50.956C110.601 50.956 110.897 50.884 111.105 50.74C111.321 50.588 111.429 50.396 111.429 50.164C111.429 49.916 111.309 49.732 111.069 49.612C110.837 49.492 110.465 49.36 109.953 49.216C109.457 49.08 109.053 48.948 108.741 48.82C108.429 48.692 108.157 48.496 107.925 48.232C107.701 47.968 107.589 47.62 107.589 47.188C107.589 46.836 107.693 46.516 107.901 46.228C108.109 45.932 108.405 45.7 108.789 45.532C109.181 45.364 109.629 45.28 110.133 45.28C110.885 45.28 111.489 45.472 111.945 45.856C112.409 46.232 112.657 46.748 112.689 47.404H111.321C111.297 47.108 111.177 46.872 110.961 46.696C110.745 46.52 110.453 46.432 110.085 46.432C109.725 46.432 109.449 46.5 109.257 46.636C109.065 46.772 108.969 46.952 108.969 47.176C108.969 47.352 109.033 47.5 109.161 47.62C109.289 47.74 109.445 47.836 109.629 47.908C109.813 47.972 110.085 48.056 110.445 48.16C110.925 48.288 111.317 48.42 111.621 48.556C111.933 48.684 112.201 48.876 112.425 49.132C112.649 49.388 112.765 49.728 112.773 50.152C112.773 50.528 112.669 50.864 112.461 51.16C112.253 51.456 111.957 51.688 111.573 51.856C111.197 52.024 110.753 52.108 110.241 52.108ZM119.769 52.108C119.249 52.108 118.781 52.016 118.365 51.832C117.957 51.64 117.633 51.384 117.393 51.064C117.153 50.736 117.025 50.372 117.009 49.972H118.425C118.449 50.252 118.581 50.488 118.821 50.68C119.069 50.864 119.377 50.956 119.745 50.956C120.129 50.956 120.425 50.884 120.633 50.74C120.849 50.588 120.957 50.396 120.957 50.164C120.957 49.916 120.837 49.732 120.597 49.612C120.365 49.492 119.993 49.36 119.481 49.216C118.985 49.08 118.581 48.948 118.269 48.82C117.957 48.692 117.685 48.496 117.453 48.232C117.229 47.968 117.117 47.62 117.117 47.188C117.117 46.836 117.221 46.516 117.429 46.228C117.637 45.932 117.933 45.7 118.317 45.532C118.709 45.364 119.157 45.28 119.661 45.28C120.413 45.28 121.017 45.472 121.473 45.856C121.937 46.232 122.185 46.748 122.217 47.404H120.849C120.825 47.108 120.705 46.872 120.489 46.696C120.273 46.52 119.981 46.432 119.613 46.432C119.253 46.432 118.977 46.5 118.785 46.636C118.593 46.772 118.497 46.952 118.497 47.176C118.497 47.352 118.561 47.5 118.689 47.62C118.817 47.74 118.973 47.836 119.157 47.908C119.341 47.972 119.613 48.056 119.973 48.16C120.453 48.288 120.845 48.42 121.149 48.556C121.461 48.684 121.729 48.876 121.953 49.132C122.177 49.388 122.293 49.728 122.301 50.152C122.301 50.528 122.197 50.864 121.989 51.16C121.781 51.456 121.485 51.688 121.101 51.856C120.725 52.024 120.281 52.108 119.769 52.108ZM125.375 46.504V50.164C125.375 50.412 125.431 50.592 125.543 50.704C125.663 50.808 125.863 50.86 126.143 50.86H126.983V52H125.903C125.287 52 124.815 51.856 124.487 51.568C124.159 51.28 123.995 50.812 123.995 50.164V46.504H123.215V45.388H123.995V43.744H125.375V45.388H126.983V46.504H125.375ZM127.788 48.664C127.788 48 127.924 47.412 128.196 46.9C128.476 46.388 128.852 45.992 129.324 45.712C129.804 45.424 130.332 45.28 130.908 45.28C131.428 45.28 131.88 45.384 132.264 45.592C132.656 45.792 132.968 46.044 133.2 46.348V45.388H134.58V52H133.2V51.016C132.968 51.328 132.652 51.588 132.252 51.796C131.852 52.004 131.396 52.108 130.884 52.108C130.316 52.108 129.796 51.964 129.324 51.676C128.852 51.38 128.476 50.972 128.196 50.452C127.924 49.924 127.788 49.328 127.788 48.664ZM133.2 48.688C133.2 48.232 133.104 47.836 132.912 47.5C132.728 47.164 132.484 46.908 132.18 46.732C131.876 46.556 131.548 46.468 131.196 46.468C130.844 46.468 130.516 46.556 130.212 46.732C129.908 46.9 129.66 47.152 129.468 47.488C129.284 47.816 129.192 48.208 129.192 48.664C129.192 49.12 129.284 49.52 129.468 49.864C129.66 50.208 129.908 50.472 130.212 50.656C130.524 50.832 130.852 50.92 131.196 50.92C131.548 50.92 131.876 50.832 132.18 50.656C132.484 50.48 132.728 50.224 132.912 49.888C133.104 49.544 133.2 49.144 133.2 48.688ZM137.745 46.348C137.945 46.012 138.209 45.752 138.537 45.568C138.873 45.376 139.269 45.28 139.725 45.28V46.696H139.377C138.841 46.696 138.433 46.832 138.153 47.104C137.881 47.376 137.745 47.848 137.745 48.52V52H136.377V45.388H137.745V46.348ZM142.578 46.504V50.164C142.578 50.412 142.634 50.592 142.746 50.704C142.866 50.808 143.066 50.86 143.346 50.86H144.186V52H143.106C142.49 52 142.018 51.856 141.69 51.568C141.362 51.28 141.198 50.812 141.198 50.164V46.504H140.418V45.388H141.198V43.744H142.578V45.388H144.186V46.504H142.578Z" fill="#382D7E" fill-opacity="0.46"/>
<defs>
<clipPath id="clip0_35_60">
<rect x="70.4678" width="69" height="70.4677" rx="16" transform="rotate(90 70.4678 0)" fill="white"/>
</clipPath>
</defs>
</svg>
